<svg width="39" height="68" viewBox="0 0 39 68" fill="none" xmlns="http://www.w3.org/2000/svg">
<g clip-path="url(#clip0_250_434)">
<path d="M6.84302 2.31802C7.0202 2.29736 7.19878 2.25604 7.3789 2.19406C7.55898 2.12913 7.7524 2.03911 7.95905 1.92401C7.89411 2.3372 7.84536 2.80352 7.81289 3.32297C7.78042 3.84241 7.76419 4.42236 7.76419 5.06282C7.76419 5.34022 7.76564 5.56013 7.76863 5.72242C7.77158 5.88476 7.77598 5.98953 7.78192 6.03677C7.81734 6.65362 8.03283 7.12585 8.42846 7.45343C8.71189 7.68953 9.24333 7.8622 10.0228 7.97141L10.0272 7.96697C10.2073 7.81941 10.3564 7.4387 10.4745 6.8248C10.5365 6.51195 10.5675 5.96296 10.5675 5.17793V5.07166C10.5675 4.65256 10.5542 4.22757 10.5276 3.79666C10.501 3.36576 10.4627 2.92306 10.4125 2.46854L10.3859 2.31802C10.566 2.29736 10.7447 2.25604 10.9218 2.19406C11.1019 2.12913 11.2953 2.03911 11.5019 1.92401C11.434 2.35491 11.3823 2.79024 11.3469 3.23C11.3115 3.66975 11.2938 4.11984 11.2938 4.58025C11.2938 5.03771 11.3012 5.40663 11.3159 5.68702C11.3336 5.96446 11.3499 6.1312 11.3646 6.18727C11.341 6.30237 11.2893 6.44109 11.2097 6.60343C11.1329 6.76282 11.0354 6.92811 10.9173 7.09929C10.8022 7.26748 10.6723 7.42981 10.5276 7.58626C10.3829 7.74266 10.2324 7.87399 10.0759 7.98025L8.97319 8.61777C8.92594 8.61483 8.86689 8.603 8.79606 8.58232C8.72812 8.5617 8.64695 8.53218 8.55249 8.49379C8.46097 8.45543 8.36057 8.40969 8.25133 8.35656C8.14503 8.30049 8.03728 8.23702 7.92803 8.16621C7.81879 8.09241 7.71254 8.01271 7.60919 7.92712C7.50878 7.83858 7.41877 7.74266 7.33904 7.63939C7.09693 7.2439 6.97589 6.8248 6.97589 6.38207C7.01131 5.87148 7.02904 5.46126 7.02904 5.15136V5.02737C7.02904 3.8675 6.97589 3.01455 6.86959 2.46854L6.84302 2.31802ZM8.60564 1.49901C8.72078 1.45178 8.83297 1.38833 8.94222 1.30864C9.09572 1.19649 9.2271 1.08139 9.33634 0.963332C9.36292 0.93382 9.41017 0.87184 9.47806 0.777393C9.53121 0.703608 9.62122 0.514722 9.7482 0.210728C9.97553 0.378957 10.2885 0.517673 10.6871 0.626872L10.3903 0.817236C10.2427 0.914635 10.0981 1.02974 9.95635 1.16255C9.92388 1.19207 9.88547 1.24076 9.84121 1.30864C9.71423 1.50049 9.62567 1.67609 9.57547 1.83547C9.56073 1.88269 9.55334 1.90777 9.55334 1.91073L9.15921 1.68937C9.00271 1.59788 8.81819 1.53443 8.60564 1.49901ZM12.8305 8.61333C12.9574 7.72793 13.0209 6.73626 13.0209 5.63833C13.0209 5.47599 13.0194 5.31665 13.0165 5.1602C12.9929 3.8675 12.9398 2.97027 12.8571 2.46854L12.8305 2.31802C13.1907 2.2767 13.5524 2.15126 13.9155 1.94172L13.9465 1.92401C13.8136 2.7622 13.7472 3.77748 13.7472 4.96985C13.7472 5.02003 13.7472 5.07166 13.7472 5.1248C13.7472 6.54146 13.8018 7.5154 13.9111 8.04666L13.9465 8.20606C13.7457 8.22963 13.5657 8.27097 13.4062 8.33C13.1494 8.42443 12.9574 8.5189 12.8305 8.61333ZM15.3858 8.61333C15.4508 8.16766 15.498 7.69841 15.5275 7.2055C15.56 6.71264 15.5763 6.19022 15.5763 5.63833C15.5763 5.5439 15.5763 5.45682 15.5763 5.37712C15.5763 5.29742 15.5748 5.22512 15.5718 5.1602L15.5452 4.15083C15.3326 4.15673 15.1304 4.16854 14.9385 4.18625C14.7495 4.20396 14.5665 4.22904 14.3894 4.26151C14.4307 4.19658 14.4691 4.10951 14.5045 4.00031C14.537 3.88816 14.5621 3.75829 14.5798 3.61073L14.6506 3.63286C14.7363 3.65943 14.8514 3.67861 14.9961 3.69041C15.1408 3.69927 15.3164 3.70812 15.5231 3.71698C15.5083 3.4425 15.4921 3.20196 15.4744 2.99536C15.4567 2.78876 15.436 2.61316 15.4124 2.46854L15.3858 2.31802C15.5659 2.29736 15.7445 2.25604 15.9217 2.19406C16.1018 2.12913 16.2951 2.03911 16.5018 1.92401C16.4192 2.44935 16.3616 3.04996 16.3291 3.72583C16.5535 3.71993 16.7616 3.70812 16.9535 3.69041C17.1484 3.66975 17.3299 3.64319 17.4982 3.61073C17.4008 3.81142 17.3403 4.02835 17.3167 4.26151L17.2458 4.2438C17.1454 4.22019 17.017 4.20396 16.8605 4.1951C16.704 4.18329 16.521 4.17149 16.3114 4.15969C16.3084 4.2925 16.3055 4.42531 16.3025 4.55813C16.3025 4.69096 16.3025 4.82818 16.3025 4.96985V5.1248C16.3055 5.83608 16.3187 6.43375 16.3424 6.91777C16.366 7.4018 16.4073 7.77811 16.4664 8.04666L16.5018 8.20606C16.3955 8.22079 16.2863 8.24441 16.1741 8.27687C16.0619 8.30638 15.9541 8.34178 15.8508 8.38313C15.7504 8.42148 15.6589 8.46133 15.5763 8.50267C15.4936 8.54397 15.4301 8.58087 15.3858 8.61333ZM17.9411 3.37166C17.9972 3.12965 18.0252 2.87583 18.0252 2.61021C18.0252 2.53052 18.0223 2.45083 18.0164 2.37114C18.0134 2.29146 18.006 2.21177 17.9943 2.13208L17.9677 2.03911C18.3485 2.00074 18.7338 1.86941 19.1235 1.6451L19.1545 1.62739C19.1073 1.79562 19.0837 2.03616 19.0837 2.34901C19.0837 2.43165 19.0866 2.52314 19.0926 2.62349C19.1014 2.72088 19.1132 2.82861 19.128 2.94666C19.0069 2.96142 18.8859 2.98504 18.7648 3.0175C18.6467 3.04701 18.5345 3.08243 18.4282 3.12375C18.3249 3.16212 18.2304 3.20344 18.1448 3.24771C18.0621 3.29198 17.9943 3.33329 17.9411 3.37166ZM18.0164 8.61333C18.0725 8.16766 18.1138 7.76333 18.1404 7.4003C18.1699 7.03433 18.1847 6.7038 18.1847 6.40864C18.1847 6.16959 18.1817 5.94673 18.1758 5.74015C18.1729 5.53062 18.1655 5.33288 18.1537 5.14692C18.1419 4.95801 18.1256 4.77654 18.1049 4.60237C18.0873 4.42826 18.0651 4.25265 18.0385 4.07557L18.0164 4.00474C18.1965 3.98408 18.3751 3.94276 18.5523 3.88078C18.7323 3.81585 18.9154 3.73173 19.1014 3.62844L19.1324 3.61073C18.9848 4.12132 18.911 4.83113 18.911 5.74015V5.8951C18.911 6.72443 18.973 7.44165 19.097 8.04666L19.1324 8.20606C19.0054 8.22079 18.8844 8.24441 18.7693 8.27687C18.6571 8.30638 18.5523 8.34033 18.4548 8.37869C18.3604 8.41708 18.2747 8.45689 18.198 8.49823C18.1241 8.53953 18.0636 8.57793 18.0164 8.61333ZM20.4831 8.61333C20.5953 7.72793 20.6514 6.99303 20.6514 6.40864C20.6514 6.11646 20.6499 5.95707 20.647 5.9305C20.6411 5.24284 20.5938 4.62454 20.5053 4.07557L20.4831 4.00474C20.8403 3.96342 21.202 3.83799 21.5681 3.62844L21.5991 3.61073C21.5401 3.78486 21.4766 3.98556 21.4087 4.21281L22.3786 3.61073C22.5469 3.655 22.755 3.74059 23.003 3.8675C23.2362 3.98851 23.4577 4.14935 23.6673 4.35005L25.3812 3.61073C25.5494 3.655 25.7576 3.74059 26.0056 3.8675C26.2359 3.98851 26.4573 4.14935 26.6698 4.35005C26.9297 4.59798 27.1127 4.87097 27.219 5.16904C27.3342 5.45237 27.3962 5.76227 27.405 6.09874C27.4316 6.95762 27.4862 7.60689 27.5689 8.04666L27.6043 8.20606C27.4065 8.22963 27.2264 8.27097 27.064 8.33C26.8072 8.42443 26.6152 8.5189 26.4883 8.61333C26.6035 7.84008 26.661 7.0919 26.661 6.36879C26.6581 6.27436 26.6566 6.19022 26.6566 6.11646C26.6566 5.77705 26.6035 5.52028 26.4972 5.34616C26.3171 5.07756 26.0602 4.86358 25.7266 4.70424C25.1951 4.4504 24.7228 4.32349 24.3094 4.32349C24.1027 4.32349 23.9109 4.35448 23.7337 4.41646C23.9581 4.64961 24.119 4.90049 24.2164 5.16904C24.3316 5.45237 24.3936 5.76227 24.4024 6.09874C24.429 6.95762 24.4836 7.60689 24.5663 8.04666L24.6017 8.20606C24.4039 8.22963 24.2238 8.27097 24.0614 8.33C23.8046 8.42443 23.6127 8.5189 23.4857 8.61333C23.6009 7.84008 23.6584 7.0919 23.6584 6.36879C23.6555 6.27436 23.654 6.19022 23.654 6.11646C23.654 5.77705 23.6009 5.52028 23.4946 5.34616C23.3174 5.08644 23.0606 4.87242 22.724 4.70424C22.4287 4.55663 21.9918 4.42383 21.4131 4.30578H21.4087C21.388 4.52123 21.3777 4.99936 21.3777 5.74015V5.8951C21.3777 6.72443 21.4397 7.44165 21.5637 8.04666L21.5991 8.20606C21.3984 8.22963 21.2183 8.27097 21.0588 8.33C20.802 8.42443 20.6101 8.5189 20.4831 8.61333ZM29.4378 4.25708L29.4333 4.26151C29.3477 4.42088 29.2562 4.68796 29.1587 5.06282C29.0879 5.33138 29.0525 5.58225 29.0525 5.8154C29.0525 5.90689 29.0598 6.00281 29.0746 6.10318C29.113 6.36289 29.2222 6.62705 29.4023 6.89561C29.5883 7.17599 29.8437 7.38997 30.1685 7.53757C30.4726 7.67625 30.908 7.81057 31.4749 7.9404L31.4793 7.93601C31.5502 7.77661 31.6343 7.48444 31.7318 7.05944C31.7908 6.80267 31.8203 6.56948 31.8203 6.35995C31.8203 6.24779 31.813 6.14892 31.7982 6.06333C31.7539 5.80362 31.6447 5.53946 31.4705 5.2709C31.3288 5.05249 31.0734 4.83997 30.7043 4.63338C30.415 4.47106 29.9928 4.34562 29.4378 4.25708ZM30.5183 8.63106C30.3412 8.58677 30.1316 8.50118 29.8895 8.37429C29.6503 8.24736 29.4289 8.08651 29.2252 7.89171C28.9654 7.64084 28.7838 7.36784 28.6804 7.07272C28.5535 6.77166 28.49 6.46177 28.49 6.14303C28.49 6.13414 28.49 6.12825 28.49 6.1253C28.49 5.80951 28.5623 5.48338 28.707 5.14692C28.8221 4.87836 28.9683 4.64961 29.1454 4.46073C29.2281 4.37219 29.3167 4.2925 29.4112 4.22166L30.35 3.6063C30.4947 3.64467 30.7058 3.73469 30.9833 3.87635C31.19 3.9826 31.4099 4.14198 31.6432 4.35448C31.906 4.60831 32.0905 4.89015 32.1967 5.20005C32.3149 5.53062 32.3754 5.83757 32.3783 6.1209V6.13858C32.3783 6.5459 32.3134 6.86904 32.1835 7.10813C31.9827 7.47705 31.8144 7.72203 31.6786 7.84303C31.6048 7.90794 31.5546 7.96108 31.528 8.00237L30.5183 8.63106Z" fill="black"/>
<path d="M38.0981 13.5564C37.8149 13.3263 37.484 13.1629 37.1297 13.0781C36.7754 12.9934 36.4066 12.9895 36.0506 13.0667C33.446 13.6151 30.7572 13.6221 28.1498 13.0872C25.5424 12.5524 23.0715 11.487 20.8894 9.95674C20.4813 9.67237 19.9966 9.52 19.5 9.52C19.0034 9.52 18.5187 9.67237 18.1106 9.95674C15.9285 11.487 13.4576 12.5524 10.8502 13.0872C8.24279 13.6221 5.55401 13.6151 2.94939 13.0667C2.59336 12.9895 2.22463 12.9934 1.87031 13.0781C1.51598 13.1629 1.18506 13.3263 0.901889 13.5564C0.619089 13.7869 0.391283 14.0781 0.235214 14.4087C0.0791442 14.7392 -0.00122409 15.1006 1.40924e-05 15.4665V33.7098C-0.00215293 37.2207 0.830646 40.6813 2.42907 43.8035C4.02748 46.9254 6.34525 49.6191 9.1894 51.6591L18.0863 58.0262C18.4991 58.3213 18.9932 58.48 19.5 58.48C20.0068 58.48 20.5009 58.3213 20.9138 58.0262L29.8106 51.6591C32.6547 49.6191 34.9725 46.9254 36.5709 43.8035C38.1693 40.6813 39.0021 37.2207 39 33.7098V15.4665C39.0012 15.1006 38.9209 14.7392 38.7648 14.4087C38.6087 14.0781 38.3809 13.7869 38.0981 13.5564ZM34.125 33.7098C34.1269 36.4396 33.4797 39.1303 32.2375 41.5581C30.9953 43.9859 29.1939 46.0804 26.9831 47.6675L19.5 53.0305L12.0169 47.6675C9.80614 46.0804 8.0047 43.9859 6.76246 41.5581C5.52027 39.1303 4.87314 36.4396 4.875 33.7098V18.2826C9.98504 18.7219 15.1028 17.5309 19.5 14.8788C23.8972 17.5309 29.015 18.7219 34.125 18.2826V33.7098Z" fill="black"/>
<path d="M7.81738 66.1867C7.94431 65.3072 8.0078 64.3153 8.0078 63.2119C8.0078 63.0523 8.00631 62.8927 8.00336 62.7336C7.97978 61.4348 7.92663 60.5377 7.84396 60.0417L7.81738 59.8912C8.1746 59.85 8.5363 59.7244 8.9024 59.515L8.93337 59.4973C8.80349 60.3151 8.73706 61.3052 8.73411 62.468C9.112 62.5124 9.50912 62.5342 9.92538 62.5342C9.95195 62.5342 9.97853 62.5342 10.0051 62.5342C10.6369 62.5342 11.0886 62.5047 11.3603 62.4458C11.3366 61.336 11.285 60.535 11.2053 60.0417L11.1787 59.8912C11.5359 59.85 11.8976 59.7244 12.2637 59.515L12.2947 59.4973C12.1618 60.3328 12.0954 61.3478 12.0954 62.5432C12.0954 62.5935 12.0954 62.6452 12.0954 62.6983C12.0954 64.1177 12.15 65.0919 12.2593 65.62L12.2947 65.7796C12.0939 65.8032 11.9138 65.8444 11.7544 65.9033C11.4975 65.9976 11.3056 66.0924 11.1787 66.1867C11.3056 65.2922 11.3691 64.2845 11.3691 63.1629C11.3691 63.1158 11.3691 63.0655 11.3691 63.0124C11.0827 62.9739 10.7388 62.9549 10.3372 62.9549C10.228 62.9549 10.1232 62.9562 10.0228 62.9594C9.31131 62.9798 8.88317 63.0038 8.73851 63.0301C8.75034 64.2963 8.80349 65.1594 8.89795 65.62L8.93337 65.7796C8.73261 65.8032 8.55253 65.8444 8.39309 65.9033C8.13623 65.9976 7.94431 66.0924 7.81738 66.1867ZM14.354 61.8306L14.3496 61.8347C14.2639 61.9942 14.1724 62.2613 14.075 62.6362C14.0041 62.9045 13.9687 63.1557 13.9687 63.3887C13.9687 63.4803 13.9761 63.5764 13.9909 63.6766C14.0292 63.9363 14.1385 64.2002 14.3185 64.469C14.5046 64.7491 14.7599 64.9631 15.0847 65.1109C15.3888 65.2496 15.8243 65.3838 16.3911 65.5139L16.3956 65.5094C16.4664 65.3498 16.5506 65.0579 16.648 64.6326C16.707 64.3761 16.7365 64.143 16.7365 63.9332C16.7365 63.8212 16.7292 63.7223 16.7144 63.6367C16.6702 63.3769 16.5609 63.1126 16.3867 62.8442C16.245 62.6257 15.9896 62.4131 15.6206 62.2069C15.3312 62.0446 14.909 61.919 14.354 61.8306ZM15.4346 66.2044C15.2574 66.1599 15.0478 66.0747 14.8057 65.9478C14.5666 65.8208 14.3451 65.6599 14.1414 65.465C13.8816 65.2143 13.7 64.9414 13.5967 64.6462C13.4698 64.3452 13.4063 64.0351 13.4063 63.7165C13.4063 63.7074 13.4063 63.7015 13.4063 63.6988C13.4063 63.3828 13.4786 63.0569 13.6233 62.7205C13.7384 62.4517 13.8846 62.2232 14.0617 62.0341C14.1444 61.9457 14.2329 61.8659 14.3274 61.7948L15.2663 61.1796C15.411 61.2181 15.6221 61.3079 15.8995 61.4498C16.1062 61.5559 16.3262 61.7154 16.5594 61.9276C16.8222 62.1815 17.0067 62.4634 17.113 62.7735C17.2311 63.104 17.2916 63.4109 17.2946 63.6942V63.7119C17.2946 64.119 17.2296 64.4422 17.0997 64.6816C16.8989 65.0502 16.7307 65.2954 16.5949 65.4165C16.521 65.4813 16.4708 65.5343 16.4443 65.5756L15.4346 66.2044ZM22.0464 65.819C21.9342 66.0729 21.732 66.368 21.4397 66.7048C21.2449 66.9288 21.0633 67.0988 20.895 67.2139L19.9119 67.8468C19.6343 67.7407 19.4764 67.6772 19.438 67.6564C19.2786 67.5707 19.0793 67.4175 18.8401 67.1962C18.7457 67.1015 18.6601 67.004 18.5833 66.9038L19.3849 66.5054L19.7746 66.8685C20.0137 67.0929 20.337 67.2049 20.7444 67.2049C20.774 67.2049 20.805 67.2049 20.8374 67.2049L20.8463 67.2003C21.0353 67.0498 21.1829 66.669 21.2892 66.0584C21.3305 65.8163 21.3527 65.6128 21.3556 65.4473C21.3644 64.8276 21.3689 64.4082 21.3689 64.1902C21.3689 64.1399 21.3689 64.0973 21.3689 64.0614C21.3659 63.8815 21.3644 63.7622 21.3644 63.7029C21.3644 63.3606 21.2966 63.1008 21.1607 62.924C20.9718 62.6434 20.7164 62.4294 20.3946 62.2821C20.0876 62.1402 19.6624 61.9929 19.1192 61.8392C18.9538 62.1225 18.846 62.4013 18.7959 62.6761C18.7486 62.9358 18.725 63.1747 18.725 63.3932C18.725 63.4966 18.7368 63.6086 18.7604 63.7296C18.8195 64.0306 18.9287 64.2963 19.0882 64.5266C19.2564 64.7804 19.5045 64.9871 19.8321 65.1463C20.151 65.3 20.5894 65.4414 21.1474 65.5715L20.2086 66.1867C20.0698 66.1513 19.8587 66.0611 19.5753 65.9165C19.3716 65.8131 19.1501 65.654 18.911 65.4387C18.6512 65.1848 18.4681 64.9028 18.3618 64.5927C18.2408 64.2623 18.1803 63.9495 18.1803 63.6543C18.1803 63.3325 18.2453 63.0097 18.3751 62.6847C18.5139 62.3365 18.6822 62.0917 18.88 61.9498L19.035 61.817L20.0447 61.1887C20.2485 61.2417 20.4581 61.3287 20.6736 61.4498C20.8655 61.559 21.0855 61.7182 21.3335 61.9276C21.7114 62.2467 21.9535 62.5151 22.0597 62.7336L22.073 63.6766C22.0937 64.4527 22.1173 64.9454 22.1439 65.1553C22.1705 65.3648 22.1838 65.4722 22.1838 65.4786L22.0464 65.819ZM23.3928 62.468C23.4695 62.2907 23.5994 62.1284 23.7825 61.9811L23.9906 61.8129L25.0003 61.1841C25.1686 61.2281 25.3768 61.3138 25.6248 61.4407C25.861 61.5618 26.0824 61.7227 26.2891 61.9235C26.5489 62.1774 26.7319 62.4503 26.8382 62.7422C26.9533 63.0256 27.0154 63.3357 27.0242 63.672C27.0449 64.5102 27.0995 65.1594 27.188 65.62L27.2235 65.7796C27.0227 65.8032 26.8426 65.8444 26.6832 65.9033C26.4263 65.9976 26.2345 66.0924 26.1075 66.1867C26.2197 65.3897 26.2758 64.5973 26.2758 63.8094C26.2758 63.7709 26.2758 63.731 26.2758 63.6897C26.2758 63.3533 26.2226 63.0967 26.1163 62.9195C25.9303 62.6452 25.6735 62.4308 25.3458 62.2776C25.0505 62.1389 24.6135 62.006 24.0349 61.8791C23.9876 61.953 23.9641 62.0813 23.9641 62.2644C23.9641 62.3796 23.9832 62.5301 24.0216 62.7159L23.3928 62.468ZM25.1731 66.1867C25.0048 66.1277 24.7376 66.0035 24.3715 65.8149C24.0969 65.673 23.8312 65.4604 23.5743 65.1771C23.3854 64.882 23.2909 64.6091 23.2909 64.3584C23.2909 64.3525 23.2909 64.3452 23.2909 64.3362C23.3352 63.9789 23.5005 63.6897 23.7869 63.4685C24.2711 63.0967 24.8778 62.9077 25.6071 62.9018C24.7066 63.2323 24.1855 63.6013 24.0437 64.0084C24.0142 64.0941 23.9995 64.1766 23.9995 64.2564C23.9995 64.3924 24.0467 64.5134 24.1412 64.6195C24.3951 64.8761 24.6091 65.0474 24.7833 65.1331C25.3177 65.3956 25.7576 65.5434 26.103 65.5756L25.1731 66.1867ZM28.3307 66.1867C28.3868 65.741 28.4281 65.3367 28.4546 64.9736C28.4842 64.6077 28.4989 64.2772 28.4989 63.9821C28.4989 63.7427 28.496 63.5202 28.4901 63.3134C28.4871 63.104 28.4797 62.9063 28.4679 62.7205C28.4561 62.5314 28.4399 62.3497 28.4192 62.1756C28.4015 62.0015 28.3794 61.8261 28.3528 61.6488L28.3307 61.5781C28.5107 61.5572 28.6894 61.516 28.8665 61.4543C29.0466 61.389 29.2297 61.3052 29.4156 61.2018L29.4466 61.1841C29.4171 61.2698 29.3861 61.3641 29.3536 61.4675C29.3212 61.5677 29.2887 61.6742 29.2562 61.7862L30.2261 61.1841C30.3442 61.2163 30.4903 61.2739 30.6645 61.3569C30.8417 61.4362 31.0203 61.5427 31.2004 61.6755C31.3805 61.8052 31.5487 61.9602 31.7052 62.1402C31.8646 62.3175 31.9842 62.5183 32.064 62.7422L31.2624 63.07C31.1413 62.8488 31.0026 62.6629 30.8461 62.5124C30.6896 62.3587 30.5287 62.235 30.3634 62.1402C30.198 62.0427 30.0356 61.9734 29.8762 61.9321C29.7168 61.8882 29.5736 61.8659 29.4466 61.8659C29.3847 61.8659 29.3227 61.8705 29.2606 61.8791H29.2562C29.2444 61.9883 29.2355 62.1624 29.2297 62.4013C29.2267 62.6375 29.2252 62.9417 29.2252 63.3134V63.4685C29.2252 64.2976 29.2872 65.0148 29.4112 65.62L29.4466 65.7796C29.3315 65.7941 29.2178 65.8163 29.1056 65.8458C28.9934 65.8752 28.8872 65.9106 28.7868 65.9518C28.6894 65.9904 28.6008 66.0303 28.5211 66.0715C28.4414 66.1128 28.3779 66.1513 28.3307 66.1867Z" fill="black"/>
<path d="M26.9569 31.6072C26.7329 30.3943 23.7 30.9285 23.3671 30.9906V30.1809C24.1087 30.0273 24.6585 29.4926 24.6585 28.8566C24.6585 28.1001 23.8841 27.4848 22.9317 27.4848L22.904 27.4851C22.4719 27.0845 21.7683 26.8452 20.9834 26.8452C20.7772 26.8452 20.5744 26.8623 20.3778 26.8959C19.968 26.5496 19.3967 26.35 18.787 26.35H18.7849C18.1484 26.35 17.5584 26.566 17.1489 26.9333C16.784 26.7947 16.3915 26.7236 15.9951 26.7245C14.7102 26.7245 13.6292 27.4359 13.3435 28.4231C12.5152 28.7424 11.9608 29.4493 11.9608 30.231C11.9608 30.7787 12.2285 31.2955 12.6924 31.6671C12.6868 31.7102 12.6843 31.7533 12.6843 31.7967C12.6843 32.1974 12.8981 32.5681 13.2538 32.8202C13.2451 32.8763 13.2407 32.9329 13.2406 32.9895C13.2406 33.666 13.8483 34.2264 14.6375 34.3249V39.8477C14.6375 41.1174 23.3674 41.1174 23.3674 39.8477V37.839C25.0648 37.8228 26.3874 36.498 26.752 35.2353C27.0094 34.3462 27.1327 32.5597 26.9569 31.6072ZM22.8095 38.9658C22.8095 39.9963 15.1954 39.9963 15.1954 38.9658V34.317C15.9424 34.1985 16.5113 33.6614 16.5255 33.0148H22.8095V38.9658ZM22.9317 29.7588C22.89 29.7588 22.8502 29.7527 22.8095 29.7494V32.5467H15.843C15.9383 32.6772 15.9967 32.8272 15.9967 32.9895C15.9967 33.477 15.4986 33.8739 14.8839 33.8739C14.2683 33.8739 13.7694 33.4772 13.7694 32.9895C13.7694 32.8518 13.8122 32.7229 13.8825 32.6064C13.4888 32.47 13.2131 32.1589 13.2131 31.7967C13.2131 31.6856 13.2414 31.5809 13.2883 31.4831C12.806 31.2096 12.4896 30.751 12.4896 30.231C12.4896 29.5393 13.0462 28.958 13.8082 28.7728C13.9132 27.8851 14.8513 27.1922 15.9932 27.1922H15.9946C16.4811 27.1922 16.9289 27.3194 17.2929 27.5322C17.5646 27.1091 18.1298 26.8177 18.7844 26.8177H18.7863C19.3808 26.8177 19.9007 27.0581 20.1945 27.4191C20.4498 27.348 20.7157 27.3122 20.9831 27.3128C21.7435 27.3128 22.3949 27.5864 22.6695 27.9759C22.7558 27.9607 22.8435 27.9529 22.9315 27.9525C23.5928 27.9525 24.1289 28.3566 24.1289 28.8563C24.1292 29.3551 23.5931 29.7588 22.9317 29.7588ZM25.5993 35.2367C25.3783 36.0209 24.5088 36.7034 23.3671 36.7157V32.1139C23.6439 32.0508 25.7501 31.5973 25.8896 32.3771C26.0358 33.1926 25.8282 34.4268 25.5993 35.2367Z" fill="black"/>
<path d="M17.593 30.9169C17.3652 30.1147 16.2906 30.0598 15.7806 30.5244C15.5011 30.2939 14.8773 30.3926 14.7863 30.7765C15.0633 30.601 15.6045 30.6046 15.8081 30.842C16.3611 30.3926 17.1049 30.5937 17.3711 31.1161C17.3711 31.1161 17.8035 31.0251 18.1897 31.4053C18.1894 31.153 17.9522 30.941 17.593 30.9169ZM18.2583 27.8292C17.6638 27.4511 16.6167 27.672 16.5515 28.497C16.2031 28.5765 16.0116 28.8222 16.0617 29.0707C16.3663 28.636 16.8097 28.6586 16.8097 28.6586C16.9683 28.103 17.6608 27.7895 18.2944 28.1459C18.4476 27.8805 18.9802 27.7929 19.2874 27.9227C19.1213 27.559 18.4875 27.5588 18.2583 27.8292Z" fill="black"/>
</g>
<defs>
<clipPath id="clip0_250_434">
<rect width="39" height="68" fill="white"/>
</clipPath>
</defs>
</svg>
