<svg width="33" height="57" viewBox="0 0 33 57" fill="none" xmlns="http://www.w3.org/2000/svg">
<g clip-path="url(#clip0_250_441)">
<path d="M5.79028 1.94305C5.9402 1.92573 6.09131 1.89109 6.24373 1.83914C6.3961 1.78471 6.55976 1.70926 6.73462 1.61277C6.67967 1.95913 6.63842 2.35001 6.61095 2.78543C6.58347 3.22085 6.56974 3.70698 6.56974 4.24384C6.56974 4.47636 6.57096 4.6607 6.5735 4.79674C6.57599 4.93282 6.57971 5.02064 6.58474 5.06023C6.61471 5.5773 6.79705 5.97314 7.13181 6.24773C7.37164 6.44564 7.82132 6.59038 8.48086 6.68192L8.48458 6.6782C8.63699 6.55451 8.76312 6.23538 8.86308 5.72079C8.91554 5.45855 8.94175 4.99837 8.94175 4.34032V4.25125C8.94175 3.89994 8.9305 3.5437 8.90802 3.1825C8.88553 2.8213 8.85307 2.45021 8.81059 2.06922L8.7881 1.94305C8.94052 1.92573 9.09166 1.89109 9.24155 1.83914C9.39392 1.78471 9.55758 1.70926 9.73244 1.61277C9.67496 1.97397 9.63125 2.33888 9.60128 2.7075C9.57132 3.07612 9.55631 3.4534 9.55631 3.83933C9.55631 4.22279 9.56257 4.53203 9.57504 4.76706C9.59004 4.99962 9.60378 5.13939 9.61625 5.18639C9.5963 5.28287 9.55255 5.39915 9.48513 5.53523C9.42017 5.66884 9.33771 5.80739 9.23779 5.95088C9.14036 6.09186 9.03046 6.22793 8.90802 6.35907C8.78561 6.49017 8.65821 6.60026 8.52583 6.68933L7.59274 7.22372C7.55275 7.22125 7.50279 7.21134 7.44285 7.19401C7.38537 7.17672 7.31669 7.15198 7.23676 7.11979C7.15932 7.08765 7.07437 7.0493 6.98193 7.00477C6.89198 6.95776 6.80081 6.90456 6.70837 6.84521C6.61594 6.78334 6.52603 6.71654 6.43858 6.64479C6.35362 6.57058 6.27746 6.49017 6.21 6.40361C6.00513 6.0721 5.90271 5.72079 5.90271 5.34968C5.93268 4.92168 5.94769 4.57782 5.94769 4.31805V4.21412C5.94769 3.24188 5.90271 2.5269 5.81277 2.06922L5.79028 1.94305ZM7.28173 1.25652C7.37916 1.21694 7.47409 1.16375 7.56653 1.09695C7.69642 1.00294 7.80758 0.90646 7.90002 0.8075C7.92251 0.782762 7.96249 0.730808 8.01993 0.651639C8.0649 0.58979 8.14107 0.43146 8.24851 0.176641C8.44087 0.317656 8.70568 0.433933 9.04293 0.525468L8.79186 0.685037C8.66696 0.76668 8.54456 0.863162 8.42464 0.974491C8.39717 0.999233 8.36467 1.04005 8.32722 1.09695C8.21977 1.25776 8.14483 1.40496 8.10236 1.53856C8.08988 1.57814 8.08363 1.59917 8.08363 1.60164L7.75014 1.41609C7.61772 1.3394 7.46158 1.28621 7.28173 1.25652ZM10.8566 7.22C10.964 6.47782 11.0178 5.64657 11.0178 4.72625C11.0178 4.59017 11.0165 4.4566 11.014 4.32546C10.994 3.24188 10.9491 2.48979 10.8791 2.06922L10.8566 1.94305C11.1614 1.90841 11.4674 1.80327 11.7747 1.62762L11.8009 1.61277C11.6885 2.31538 11.6323 3.16642 11.6323 4.1659C11.6323 4.20797 11.6323 4.25125 11.6323 4.29579C11.6323 5.48329 11.6785 6.29968 11.771 6.745L11.8009 6.87861C11.6311 6.89837 11.4787 6.93302 11.3438 6.9825C11.1264 7.06165 10.964 7.14085 10.8566 7.22ZM13.0188 7.22C13.0738 6.84642 13.1137 6.45308 13.1387 6.03991C13.1662 5.62677 13.1799 5.18886 13.1799 4.72625C13.1799 4.6471 13.1799 4.5741 13.1799 4.50729C13.1799 4.44049 13.1787 4.37988 13.1762 4.32546L13.1537 3.47938C12.9738 3.48432 12.8027 3.49422 12.6403 3.50906C12.4804 3.52391 12.3255 3.54494 12.1757 3.57215C12.2106 3.51772 12.2431 3.44474 12.2731 3.3532C12.3006 3.25919 12.3218 3.15034 12.3368 3.02664L12.3967 3.04519C12.4692 3.06746 12.5666 3.08354 12.689 3.09344C12.8115 3.10086 12.9601 3.10828 13.135 3.1157C13.1225 2.88563 13.1087 2.684 13.0937 2.51082C13.0788 2.33764 13.0613 2.19044 13.0413 2.06922L13.0188 1.94305C13.1712 1.92573 13.3223 1.89109 13.4722 1.83914C13.6246 1.78471 13.7882 1.70926 13.9631 1.61277C13.8932 2.05314 13.8444 2.55659 13.817 3.12313C14.0068 3.11818 14.183 3.10828 14.3453 3.09344C14.5102 3.07612 14.6638 3.05386 14.8062 3.02664C14.7238 3.19487 14.6726 3.37671 14.6526 3.57215L14.5927 3.55731C14.5077 3.53751 14.399 3.52391 14.2666 3.51649C14.1342 3.50659 13.9793 3.49669 13.802 3.4868C13.7995 3.59813 13.797 3.70945 13.7945 3.82079C13.7945 3.93213 13.7945 4.04715 13.7945 4.1659V4.29579C13.797 4.89201 13.8082 5.393 13.8282 5.79872C13.8482 6.20445 13.8832 6.51989 13.9331 6.745L13.9631 6.87861C13.8732 6.89096 13.7807 6.91076 13.6858 6.93796C13.5909 6.9627 13.4997 6.99238 13.4122 7.02704C13.3273 7.05918 13.2499 7.09259 13.1799 7.12724C13.11 7.16186 13.0563 7.19279 13.0188 7.22ZM15.181 2.82625C15.2284 2.62339 15.2522 2.41063 15.2522 2.18797C15.2522 2.12117 15.2497 2.05438 15.2447 1.98758C15.2422 1.92078 15.2359 1.85399 15.2259 1.78719L15.2035 1.70926C15.5257 1.6771 15.8517 1.56701 16.1815 1.37899L16.2077 1.36414C16.1677 1.50516 16.1478 1.70679 16.1478 1.96902C16.1478 2.03829 16.1503 2.11499 16.1553 2.1991C16.1628 2.28074 16.1727 2.37104 16.1852 2.47C16.0828 2.48237 15.9804 2.50216 15.878 2.52938C15.778 2.55411 15.6831 2.5838 15.5932 2.61844C15.5058 2.6506 15.4258 2.68524 15.3533 2.72234C15.2834 2.75945 15.2259 2.79409 15.181 2.82625ZM15.2447 7.22C15.2921 6.84642 15.3271 6.5075 15.3496 6.2032C15.3746 5.89642 15.3871 5.61936 15.3871 5.37195C15.3871 5.17157 15.3846 4.98476 15.3796 4.8116C15.3771 4.63596 15.3708 4.47021 15.3608 4.31433C15.3508 4.15598 15.3371 4.00387 15.3196 3.85787C15.3046 3.71193 15.2859 3.56473 15.2634 3.41629L15.2447 3.35691C15.3971 3.3396 15.5482 3.30496 15.6981 3.25301C15.8505 3.19858 16.0054 3.12807 16.1628 3.04149L16.189 3.02664C16.0641 3.45464 16.0016 4.04962 16.0016 4.8116V4.94148C16.0016 5.63665 16.0541 6.23785 16.159 6.745L16.189 6.87861C16.0816 6.89096 15.9791 6.91076 15.8817 6.93796C15.7868 6.9627 15.6981 6.99116 15.6157 7.02331C15.5357 7.0555 15.4633 7.08886 15.3983 7.12352C15.3358 7.15814 15.2847 7.19032 15.2447 7.22ZM17.3319 7.22C17.4269 6.47782 17.4743 5.8618 17.4743 5.37195C17.4743 5.12704 17.4731 4.99343 17.4706 4.97116C17.4656 4.39474 17.4256 3.87646 17.3506 3.41629L17.3319 3.35691C17.6342 3.32228 17.9402 3.21714 18.25 3.04149L18.2762 3.02664C18.2263 3.17261 18.1725 3.34083 18.1151 3.53133L18.9358 3.02664C19.0782 3.06375 19.2542 3.13549 19.4641 3.24188C19.6615 3.34331 19.8488 3.47814 20.0262 3.64637L21.4764 3.02664C21.6188 3.06375 21.7949 3.13549 22.0048 3.24188C22.1996 3.34331 22.387 3.47814 22.5668 3.64637C22.7867 3.85419 22.9416 4.08302 23.0315 4.33287C23.1289 4.57037 23.1814 4.83014 23.1889 5.11218C23.2114 5.83213 23.2576 6.37636 23.3276 6.745L23.3575 6.87861C23.1902 6.89837 23.0378 6.93302 22.9004 6.9825C22.683 7.06165 22.5206 7.14085 22.4132 7.22C22.5107 6.57183 22.5594 5.94468 22.5594 5.33854C22.5569 5.25939 22.5556 5.18886 22.5556 5.12704C22.5556 4.84253 22.5107 4.6273 22.4207 4.48134C22.2683 4.25619 22.051 4.07683 21.7687 3.94326C21.319 3.73048 20.9193 3.6241 20.5696 3.6241C20.3947 3.6241 20.2323 3.65008 20.0824 3.70203C20.2723 3.89747 20.4084 4.10776 20.4909 4.33287C20.5883 4.57037 20.6407 4.83014 20.6482 5.11218C20.6707 5.83213 20.717 6.37636 20.7869 6.745L20.8169 6.87861C20.6495 6.89837 20.4971 6.93302 20.3597 6.9825C20.1424 7.06165 19.98 7.14085 19.8726 7.22C19.97 6.57183 20.0187 5.94468 20.0187 5.33854C20.0162 5.25939 20.015 5.18886 20.015 5.12704C20.015 4.84253 19.97 4.6273 19.8801 4.48134C19.7302 4.26364 19.5128 4.08424 19.228 3.94326C18.9782 3.81953 18.6085 3.70822 18.1189 3.60926H18.1151C18.0976 3.78986 18.0888 4.19064 18.0888 4.8116V4.94148C18.0888 5.63665 18.1413 6.23785 18.2462 6.745L18.2762 6.87861C18.1063 6.89837 17.954 6.93302 17.8191 6.9825C17.6017 7.06165 17.4393 7.14085 17.3319 7.22ZM24.9089 3.56844L24.9052 3.57215C24.8327 3.70574 24.7553 3.92962 24.6728 4.24384C24.6129 4.46895 24.5829 4.67924 24.5829 4.87468C24.5829 4.95136 24.5891 5.03177 24.6016 5.1159C24.6341 5.3336 24.7265 5.55503 24.8789 5.78014C25.0363 6.01517 25.2524 6.19453 25.5272 6.31826C25.7845 6.4345 26.153 6.5471 26.6326 6.65593L26.6364 6.65224C26.6964 6.51863 26.7675 6.27372 26.85 5.91747C26.9 5.70224 26.9249 5.50677 26.9249 5.33113C26.9249 5.23712 26.9187 5.15424 26.9062 5.0825C26.8687 4.8648 26.7763 4.64337 26.6289 4.41826C26.509 4.23518 26.2929 4.05703 25.9806 3.88387C25.7358 3.7478 25.3785 3.64266 24.9089 3.56844ZM25.8232 7.23486C25.6733 7.19773 25.496 7.12599 25.2911 7.01963C25.0888 6.91323 24.9014 6.7784 24.729 6.61512C24.5092 6.40482 24.3555 6.17599 24.2681 5.92861C24.1607 5.67625 24.107 5.41648 24.107 5.1493C24.107 5.14186 24.107 5.13692 24.107 5.13445C24.107 4.86974 24.1682 4.59637 24.2906 4.31433C24.388 4.08922 24.5117 3.89747 24.6616 3.73914C24.7315 3.66492 24.8065 3.59813 24.8864 3.53875L25.6808 3.02293C25.8032 3.05509 25.9819 3.13055 26.2167 3.2493C26.3916 3.33836 26.5777 3.47195 26.775 3.65008C26.9974 3.86285 27.1535 4.0991 27.2434 4.35887C27.3434 4.63596 27.3946 4.89326 27.3971 5.13076V5.14558C27.3971 5.48701 27.3421 5.75787 27.2322 5.95829C27.0623 6.26753 26.9199 6.47288 26.805 6.5743C26.7426 6.62872 26.7001 6.67326 26.6776 6.70787L25.8232 7.23486Z" fill="black"/>
<path d="M32.2369 11.3635C31.9973 11.1706 31.7173 11.0336 31.4174 10.9625C31.1176 10.8915 30.8056 10.8882 30.5044 10.953C28.3005 11.4126 26.0253 11.4185 23.8191 10.9702C21.6128 10.5219 19.5221 9.62882 17.6756 8.34609C17.3304 8.10772 16.9202 7.98 16.5 7.98C16.0798 7.98 15.6696 8.10772 15.3244 8.34609C13.4779 9.62882 11.3872 10.5219 9.18095 10.9702C6.97467 11.4185 4.69955 11.4126 2.49564 10.953C2.19438 10.8882 1.88238 10.8915 1.58257 10.9625C1.28275 11.0336 1.00275 11.1706 0.763137 11.3635C0.523844 11.5567 0.331086 11.8008 0.199027 12.0778C0.0669681 12.3549 -0.00103577 12.6579 1.19243e-05 12.9645V28.2567C-0.00182171 31.1997 0.702854 34.1005 2.05536 36.7177C3.40787 39.3346 5.36906 41.5925 7.77564 43.3025L15.3038 48.6396C15.6531 48.887 16.0712 49.02 16.5 49.02C16.9288 49.02 17.3469 48.887 17.6963 48.6396L25.2244 43.3025C27.6309 41.5925 29.5921 39.3346 30.9446 36.7177C32.2971 34.1005 33.0018 31.1997 33 28.2567V12.9645C33.001 12.6579 32.933 12.3549 32.801 12.0778C32.6689 11.8008 32.4761 11.5567 32.2369 11.3635ZM28.875 28.2567C28.8766 30.5449 28.329 32.8004 27.2779 34.8355C26.2268 36.8706 24.7025 38.6262 22.8319 39.9566L16.5 44.452L10.1681 39.9566C8.2975 38.6262 6.77321 36.8706 5.72208 34.8355C4.671 32.8004 4.12343 30.5449 4.125 28.2567V15.3251C8.44888 15.6934 12.7793 14.695 16.5 12.4719C20.2207 14.695 24.5511 15.6934 28.875 15.3251V28.2567Z" fill="black"/>
<path d="M6.61475 55.48C6.72215 54.7428 6.77587 53.9114 6.77587 52.9864C6.77587 52.8527 6.7746 52.7189 6.77211 52.5855C6.75216 51.4968 6.70718 50.7448 6.63723 50.3291L6.61475 50.2029C6.917 50.1684 7.22306 50.0631 7.53284 49.8875L7.55904 49.8727C7.44915 50.5582 7.39293 51.3882 7.39044 52.3629C7.71019 52.4001 8.04622 52.4183 8.39843 52.4183C8.42092 52.4183 8.44341 52.4183 8.46589 52.4183C9.00049 52.4183 9.38272 52.3936 9.61257 52.3442C9.59257 51.414 9.54887 50.7425 9.48141 50.3291L9.45892 50.2029C9.76122 50.1684 10.0672 50.0631 10.377 49.8875L10.4032 49.8727C10.2908 50.5731 10.2346 51.4239 10.2346 52.4259C10.2346 52.4681 10.2346 52.5114 10.2346 52.5559C10.2346 53.7457 10.2808 54.5623 10.3733 55.005L10.4032 55.1388C10.2333 55.1585 10.081 55.1931 9.94606 55.2425C9.72872 55.3215 9.56633 55.401 9.45892 55.48C9.56633 54.7303 9.62005 53.8855 9.62005 52.9454C9.62005 52.9059 9.62005 52.8637 9.62005 52.8192C9.37773 52.7869 9.08668 52.771 8.74693 52.771C8.65449 52.771 8.56581 52.7721 8.4809 52.7748C7.87884 52.7919 7.51657 52.812 7.39416 52.8341C7.40418 53.8954 7.44915 54.6189 7.52908 55.005L7.55904 55.1388C7.38917 55.1585 7.2368 55.1931 7.10188 55.2425C6.88454 55.3215 6.72215 55.401 6.61475 55.48ZM12.1457 51.8286L12.142 51.832C12.0695 51.9658 11.9921 52.1896 11.9096 52.5038C11.8497 52.7288 11.8197 52.9393 11.8197 53.1346C11.8197 53.2114 11.8259 53.292 11.8385 53.3759C11.8709 53.5937 11.9634 53.8148 12.1157 54.0402C12.2731 54.275 12.4892 54.4544 12.764 54.5783C13.0213 54.6945 13.3898 54.807 13.8695 54.9161L13.8732 54.9123C13.9331 54.7785 14.0044 54.5338 14.0868 54.1774C14.1368 53.9623 14.1617 53.767 14.1617 53.591C14.1617 53.4972 14.1555 53.4143 14.143 53.3425C14.1056 53.1248 14.0131 52.9032 13.8657 52.6783C13.7458 52.4951 13.5297 52.3169 13.2174 52.144C12.9726 52.0079 12.6154 51.9027 12.1457 51.8286ZM13.0601 55.4948C12.9101 55.4576 12.7328 55.3861 12.5279 55.2797C12.3256 55.1733 12.1382 55.0384 11.9658 54.875C11.746 54.6649 11.5924 54.4361 11.5049 54.1888C11.3975 53.9364 11.3438 53.6765 11.3438 53.4094C11.3438 53.4018 11.3438 53.3968 11.3438 53.3946C11.3438 53.1297 11.405 52.8565 11.5274 52.5745C11.6248 52.3492 11.7485 52.1577 11.8984 51.9992C11.9683 51.9251 12.0433 51.8582 12.1233 51.7986L12.9177 51.2829C13.0401 51.3152 13.2187 51.3904 13.4535 51.5094C13.6284 51.5983 13.8145 51.7321 14.0118 51.9099C14.2342 52.1227 14.3904 52.3591 14.4803 52.619C14.5802 52.896 14.6314 53.1533 14.6339 53.3908V53.4056C14.6339 53.7468 14.579 54.0178 14.469 54.2184C14.2991 54.5273 14.1567 54.7329 14.0419 54.8344C13.9794 54.8887 13.9369 54.9332 13.9144 54.9678L13.0601 55.4948ZM18.6547 55.1718C18.5598 55.3846 18.3887 55.632 18.1413 55.9143C17.9765 56.1021 17.8229 56.2446 17.6805 56.3411L16.8485 56.8716C16.6137 56.7826 16.4801 56.7294 16.4476 56.712C16.3127 56.6401 16.1441 56.5117 15.9417 56.3263C15.8618 56.2468 15.7893 56.1651 15.7244 56.0812L16.4026 55.7471L16.7324 56.0515C16.9347 56.2396 17.2083 56.3335 17.553 56.3335C17.578 56.3335 17.6042 56.3335 17.6317 56.3335L17.6392 56.3297C17.7991 56.2035 17.924 55.8843 18.0139 55.3725C18.0489 55.1695 18.0677 54.9989 18.0702 54.8602C18.0776 54.3408 18.0814 53.9893 18.0814 53.8065C18.0814 53.7643 18.0814 53.7286 18.0814 53.6986C18.0789 53.5477 18.0776 53.4478 18.0776 53.398C18.0776 53.1111 18.0202 52.8933 17.9053 52.7451C17.7454 52.5099 17.5293 52.3306 17.257 52.2071C16.9972 52.0881 16.6375 51.9646 16.1778 51.8358C16.0379 52.0733 15.9467 52.307 15.9042 52.5373C15.8643 52.755 15.8443 52.9553 15.8443 53.1384C15.8443 53.2251 15.8543 53.3189 15.8742 53.4204C15.9242 53.6727 16.0166 53.8954 16.1516 54.0884C16.294 54.3012 16.5038 54.4745 16.7811 54.6079C17.0509 54.7367 17.4219 54.8553 17.894 54.9643L17.0996 55.48C16.9822 55.4504 16.8036 55.3747 16.5637 55.2535C16.3914 55.1669 16.204 55.0335 16.0017 54.853C15.7818 54.6402 15.6269 54.4038 15.537 54.1439C15.4346 53.8669 15.3833 53.6047 15.3833 53.3573C15.3833 53.0875 15.4383 52.817 15.5482 52.5445C15.6656 52.2527 15.808 52.0475 15.9754 51.9285L16.1066 51.8172L16.961 51.2905C17.1333 51.335 17.3107 51.4079 17.4931 51.5094C17.6555 51.601 17.8416 51.7343 18.0514 51.9099C18.3712 52.1774 18.5761 52.4024 18.666 52.5855L18.6772 53.3759C18.6947 54.0265 18.7147 54.4396 18.7372 54.6155C18.7597 54.7911 18.7709 54.8811 18.7709 54.8864L18.6547 55.1718ZM19.7939 52.3629C19.8589 52.2143 19.9688 52.0782 20.1237 51.9547L20.2998 51.8138L21.1542 51.2867C21.2966 51.3236 21.4727 51.3954 21.6825 51.5018C21.8824 51.6032 22.0698 51.7381 22.2446 51.9065C22.4645 52.1193 22.6194 52.348 22.7093 52.5928C22.8067 52.8303 22.8592 53.0902 22.8667 53.3721C22.8842 54.0748 22.9304 54.6189 23.0053 55.005L23.0353 55.1388C22.8654 55.1585 22.713 55.1931 22.5781 55.2425C22.3608 55.3215 22.1984 55.401 22.091 55.48C22.1859 54.812 22.2334 54.1477 22.2334 53.4873C22.2334 53.455 22.2334 53.4215 22.2334 53.387C22.2334 53.105 22.1884 52.8899 22.0985 52.7413C21.9411 52.5114 21.7238 52.3317 21.4464 52.2033C21.1966 52.087 20.8269 51.9756 20.3373 51.8692C20.2973 51.9312 20.2773 52.0387 20.2773 52.1922C20.2773 52.2888 20.2936 52.4149 20.326 52.5707L19.7939 52.3629ZM21.3003 55.48C21.1579 55.4306 20.9318 55.3265 20.6221 55.1684C20.3897 55.0495 20.1649 54.8712 19.9476 54.6337C19.7877 54.3864 19.7077 54.1576 19.7077 53.9475C19.7077 53.9425 19.7077 53.9364 19.7077 53.9288C19.7452 53.6294 19.8851 53.387 20.1274 53.2015C20.5371 52.8899 21.0505 52.7315 21.6675 52.7265C20.9056 53.0035 20.4647 53.3129 20.3447 53.6541C20.3198 53.7259 20.3073 53.7951 20.3073 53.862C20.3073 53.976 20.3472 54.0774 20.4272 54.1663C20.6421 54.3814 20.8232 54.5251 20.9706 54.5969C21.4227 54.8169 21.7949 54.9408 22.0872 54.9678L21.3003 55.48ZM23.9721 55.48C24.0196 55.1065 24.0546 54.7675 24.077 54.4631C24.102 54.1565 24.1145 53.8794 24.1145 53.6321C24.1145 53.4314 24.112 53.2448 24.107 53.0716C24.1045 52.896 24.0983 52.7303 24.0883 52.5745C24.0783 52.4161 24.0645 52.2637 24.0471 52.1178C24.0321 51.9718 24.0133 51.8248 23.9909 51.6762L23.9721 51.6169C24.1245 51.5994 24.2757 51.5649 24.4255 51.5132C24.5779 51.4585 24.7328 51.3882 24.8902 51.3015L24.9164 51.2867C24.8915 51.3585 24.8652 51.4376 24.8377 51.5242C24.8103 51.6082 24.7828 51.6975 24.7553 51.7913L25.5759 51.2867C25.6759 51.3137 25.7995 51.3619 25.9469 51.4315C26.0968 51.498 26.2479 51.5873 26.4004 51.6986C26.5527 51.8073 26.6951 51.9373 26.8276 52.0881C26.9624 52.2367 27.0636 52.405 27.1311 52.5928L26.4528 52.8675C26.3504 52.6821 26.233 52.5263 26.1006 52.4001C25.9682 52.2713 25.832 52.1675 25.6921 52.0881C25.5522 52.0064 25.4148 51.9483 25.2799 51.9137C25.145 51.8768 25.0238 51.8582 24.9164 51.8582C24.864 51.8582 24.8115 51.862 24.759 51.8692H24.7553C24.7453 51.9608 24.7378 52.1067 24.7328 52.307C24.7303 52.505 24.7291 52.76 24.7291 53.0716V53.2015C24.7291 53.8965 24.7815 54.4977 24.8865 55.005L24.9164 55.1388C24.819 55.1509 24.7228 55.1695 24.6279 55.1942C24.5329 55.2189 24.443 55.2486 24.3581 55.2832C24.2757 55.3155 24.2007 55.3489 24.1333 55.3835C24.0658 55.4181 24.0121 55.4504 23.9721 55.48Z" fill="black"/>
<path d="M22.8096 26.4942C22.62 25.4776 20.0537 25.9253 19.7721 25.9774V25.2987C20.3996 25.1699 20.8648 24.7218 20.8648 24.1886C20.8648 23.5545 20.2096 23.0387 19.4037 23.0387L19.3803 23.0389C19.0146 22.7032 18.4192 22.5026 17.7551 22.5026C17.5806 22.5026 17.409 22.5169 17.2427 22.5451C16.8959 22.2549 16.4125 22.0875 15.8966 22.0875H15.8948C15.3562 22.0875 14.8571 22.2686 14.5105 22.5764C14.2018 22.4602 13.8697 22.4007 13.5343 22.4014C12.447 22.4014 11.5323 22.9978 11.2905 23.8252C10.5897 24.0929 10.1206 24.6854 10.1206 25.3407C10.1206 25.7998 10.3471 26.233 10.7396 26.5445C10.7349 26.5806 10.7328 26.6168 10.7328 26.6531C10.7328 26.989 10.9137 27.2997 11.2147 27.5111C11.2073 27.5581 11.2036 27.6055 11.2035 27.653C11.2035 28.2201 11.7177 28.6898 12.3855 28.7724V33.4018C12.3855 34.4661 19.7723 34.4661 19.7723 33.4018V31.718C21.2086 31.7044 22.3277 30.5939 22.6362 29.5355C22.854 28.7902 22.9584 27.2927 22.8096 26.4942ZM19.3003 32.6625C19.3003 33.5263 12.8576 33.5263 12.8576 32.6625V28.7657C13.4896 28.6664 13.971 28.2162 13.9831 27.6742H19.3003V32.6625ZM19.4037 24.9448C19.3684 24.9448 19.3347 24.9398 19.3003 24.937V27.2818H13.4055C13.4862 27.3912 13.5356 27.5169 13.5356 27.653C13.5356 28.0616 13.1141 28.3943 12.594 28.3943C12.0731 28.3943 11.651 28.0618 11.651 27.653C11.651 27.5375 11.6872 27.4295 11.7467 27.3318C11.4136 27.2175 11.1803 26.9567 11.1803 26.6531C11.1803 26.56 11.2042 26.4722 11.2438 26.3903C10.8358 26.1609 10.5681 25.7766 10.5681 25.3407C10.5681 24.7609 11.039 24.2736 11.6838 24.1184C11.7726 23.3743 12.5664 22.7935 13.5327 22.7935H13.5338C13.9455 22.7935 14.3244 22.9001 14.6324 23.0785C14.8623 22.7238 15.3405 22.4795 15.8944 22.4795H15.896C16.399 22.4795 16.839 22.681 17.0876 22.9836C17.3036 22.924 17.5286 22.894 17.7549 22.8946C18.3983 22.8946 18.9494 23.1239 19.1818 23.4504C19.2548 23.4376 19.3291 23.4311 19.4035 23.4308C19.963 23.4308 20.4167 23.7695 20.4167 24.1884C20.4169 24.6065 19.9633 24.9448 19.4037 24.9448ZM21.6609 29.5367C21.4738 30.194 20.7381 30.7661 19.7721 30.7764V26.919C20.0063 26.8661 21.7884 26.486 21.9065 27.1396C22.0302 27.8232 21.8545 28.8578 21.6609 29.5367Z" fill="black"/>
<path d="M14.8863 25.9157C14.6935 25.2432 13.7843 25.1972 13.3527 25.5866C13.1163 25.3934 12.5884 25.4762 12.5114 25.798C12.7458 25.6508 13.2037 25.6538 13.376 25.8529C13.8439 25.4762 14.4732 25.6448 14.6986 26.0826C14.6986 26.0826 15.0644 26.0063 15.3912 26.3251C15.3909 26.1135 15.1902 25.9359 14.8863 25.9157ZM15.4493 23.3274C14.9462 23.0105 14.0602 23.1956 14.005 23.8872C13.7102 23.9538 13.5482 24.1598 13.5906 24.3681C13.8483 24.0037 14.2235 24.0227 14.2235 24.0227C14.3577 23.557 14.9437 23.2941 15.4798 23.5929C15.6094 23.3704 16.0601 23.297 16.3201 23.4058C16.1795 23.1009 15.6432 23.1007 15.4493 23.3274Z" fill="black"/>
</g>
<defs>
<clipPath id="clip0_250_441">
<rect width="33" height="57" fill="white"/>
</clipPath>
</defs>
</svg>
